<svg width="234" height="40" viewBox="0 0 234 40" fill="none" xmlns="http://www.w3.org/2000/svg">
<path d="M24.0938 22L15.9062 4.17188V18.3281C15.9062 19.6302 16.0469 20.4427 16.3281 20.7656C16.7135 21.2031 17.3229 21.4219 18.1562 21.4219H18.9062V22H11.5312V21.4219H12.2812C13.1771 21.4219 13.8125 21.151 14.1875 20.6094C14.4167 20.276 14.5312 19.5156 14.5312 18.3281V4.48438C14.5312 3.54688 14.4271 2.86979 14.2188 2.45312C14.0729 2.15104 13.8021 1.90104 13.4062 1.70312C13.0208 1.49479 12.3958 1.39062 11.5312 1.39062V0.8125H17.5312L25.2188 17.3906L32.7812 0.8125H38.7812V1.39062H38.0469C37.1406 1.39062 36.5 1.66146 36.125 2.20312C35.8958 2.53646 35.7812 3.29688 35.7812 4.48438V18.3281C35.7812 19.6302 35.9271 20.4427 36.2188 20.7656C36.6042 21.2031 37.2135 21.4219 38.0469 21.4219H38.7812V22H29.7812V21.4219H30.5312C31.4375 21.4219 32.0729 21.151 32.4375 20.6094C32.6667 20.276 32.7812 19.5156 32.7812 18.3281V4.17188L24.6094 22H24.0938ZM54.1094 14.9062H45.9062L44.4688 18.25C44.1146 19.0729 43.9375 19.6875 43.9375 20.0938C43.9375 20.4167 44.0885 20.7031 44.3906 20.9531C44.7031 21.1927 45.3698 21.349 46.3906 21.4219V22H39.7188V21.4219C40.6042 21.2656 41.1771 21.0625 41.4375 20.8125C41.9688 20.3125 42.5573 19.2969 43.2031 17.7656L50.6562 0.328125H51.2031L58.5781 17.9531C59.1719 19.3698 59.7083 20.2917 60.1875 20.7188C60.6771 21.1354 61.3542 21.3698 62.2188 21.4219V22H53.8594V21.4219C54.7031 21.3802 55.2708 21.2396 55.5625 21C55.8646 20.7604 56.0156 20.4688 56.0156 20.125C56.0156 19.6667 55.8073 18.9427 55.3906 17.9531L54.1094 14.9062ZM53.6719 13.75L50.0781 5.1875L46.3906 13.75H53.6719ZM62.1719 0.8125H67.9219L80.875 16.7031V4.48438C80.875 3.18229 80.7292 2.36979 80.4375 2.04688C80.0521 1.60938 79.4427 1.39062 78.6094 1.39062H77.875V0.8125H85.25V1.39062H84.5C83.6042 1.39062 82.9688 1.66146 82.5938 2.20312C82.3646 2.53646 82.25 3.29688 82.25 4.48438V22.3438H81.6875L67.7188 5.28125V18.3281C67.7188 19.6302 67.8594 20.4427 68.1406 20.7656C68.5365 21.2031 69.1458 21.4219 69.9688 21.4219H70.7188V22H63.3438V21.4219H64.0781C64.9844 21.4219 65.625 21.151 66 20.6094C66.2292 20.276 66.3438 19.5156 66.3438 18.3281V3.59375C65.7292 2.875 65.2604 2.40104 64.9375 2.17188C64.625 1.94271 64.1615 1.72917 63.5469 1.53125C63.2448 1.4375 62.7865 1.39062 62.1719 1.39062V0.8125ZM104.234 0.8125L104.469 5.78125H103.875C103.76 4.90625 103.604 4.28125 103.406 3.90625C103.083 3.30208 102.651 2.85938 102.109 2.57812C101.578 2.28646 100.875 2.14062 100 2.14062H97.0156V18.3281C97.0156 19.6302 97.1562 20.4427 97.4375 20.7656C97.8333 21.2031 98.4427 21.4219 99.2656 21.4219H100V22H91.0156V21.4219H91.7656C92.6615 21.4219 93.2969 21.151 93.6719 20.6094C93.901 20.276 94.0156 19.5156 94.0156 18.3281V2.14062H91.4688C90.4792 2.14062 89.776 2.21354 89.3594 2.35938C88.8177 2.55729 88.3542 2.9375 87.9688 3.5C87.5833 4.0625 87.3542 4.82292 87.2812 5.78125H86.6875L86.9375 0.8125H104.234ZM117.359 14.9062H109.156L107.719 18.25C107.365 19.0729 107.188 19.6875 107.188 20.0938C107.188 20.4167 107.339 20.7031 107.641 20.9531C107.953 21.1927 108.62 21.349 109.641 21.4219V22H102.969V21.4219C103.854 21.2656 104.427 21.0625 104.688 20.8125C105.219 20.3125 105.807 19.2969 106.453 17.7656L113.906 0.328125H114.453L121.828 17.9531C122.422 19.3698 122.958 20.2917 123.438 20.7188C123.927 21.1354 124.604 21.3698 125.469 21.4219V22H117.109V21.4219C117.953 21.3802 118.521 21.2396 118.812 21C119.115 20.7604 119.266 20.4688 119.266 20.125C119.266 19.6667 119.057 18.9427 118.641 17.9531L117.359 14.9062ZM116.922 13.75L113.328 5.1875L109.641 13.75H116.922ZM138.641 10.6406H148.484V4.57812C148.484 3.49479 148.417 2.78125 148.281 2.4375C148.177 2.17708 147.958 1.95312 147.625 1.76562C147.177 1.51562 146.703 1.39062 146.203 1.39062H145.453V0.8125H154.516V1.39062H153.766C153.266 1.39062 152.792 1.51042 152.344 1.75C152.01 1.91667 151.781 2.17188 151.656 2.51562C151.542 2.84896 151.484 3.53646 151.484 4.57812V18.25C151.484 19.3229 151.552 20.0312 151.688 20.375C151.792 20.6354 152.005 20.8594 152.328 21.0469C152.786 21.2969 153.266 21.4219 153.766 21.4219H154.516V22H145.453V21.4219H146.203C147.068 21.4219 147.698 21.1667 148.094 20.6562C148.354 20.3229 148.484 19.5208 148.484 18.25V11.7969H138.641V18.25C138.641 19.3229 138.708 20.0312 138.844 20.375C138.948 20.6354 139.167 20.8594 139.5 21.0469C139.948 21.2969 140.422 21.4219 140.922 21.4219H141.688V22H132.609V21.4219H133.359C134.234 21.4219 134.87 21.1667 135.266 20.6562C135.516 20.3229 135.641 19.5208 135.641 18.25V4.57812C135.641 3.49479 135.573 2.78125 135.438 2.4375C135.333 2.17708 135.12 1.95312 134.797 1.76562C134.339 1.51562 133.859 1.39062 133.359 1.39062H132.609V0.8125H141.688V1.39062H140.922C140.422 1.39062 139.948 1.51042 139.5 1.75C139.177 1.91667 138.953 2.17188 138.828 2.51562C138.703 2.84896 138.641 3.53646 138.641 4.57812V10.6406ZM165.062 21.4219V22H155.984V21.4219H156.734C157.609 21.4219 158.245 21.1667 158.641 20.6562C158.891 20.3229 159.016 19.5208 159.016 18.25V4.5625C159.016 3.48958 158.948 2.78125 158.812 2.4375C158.708 2.17708 158.495 1.95312 158.172 1.76562C157.714 1.51562 157.234 1.39062 156.734 1.39062H155.984V0.8125H165.062V1.39062H164.297C163.432 1.39062 162.802 1.64583 162.406 2.15625C162.146 2.48958 162.016 3.29167 162.016 4.5625V18.25C162.016 19.3229 162.083 20.0312 162.219 20.375C162.323 20.6354 162.542 20.8594 162.875 21.0469C163.323 21.2969 163.797 21.4219 164.297 21.4219H165.062ZM184.188 16.1406L184.703 16.25L182.891 22H166.484V21.4219H167.281C168.177 21.4219 168.818 21.1302 169.203 20.5469C169.422 20.2135 169.531 19.4427 169.531 18.2344V4.5625C169.531 3.23958 169.385 2.41146 169.094 2.07812C168.688 1.61979 168.083 1.39062 167.281 1.39062H166.484V0.8125H176.078V1.39062C174.953 1.38021 174.161 1.48438 173.703 1.70312C173.255 1.92188 172.948 2.19792 172.781 2.53125C172.615 2.86458 172.531 3.66146 172.531 4.92188V18.2344C172.531 19.099 172.615 19.6927 172.781 20.0156C172.906 20.2344 173.099 20.3958 173.359 20.5C173.62 20.6042 174.432 20.6562 175.797 20.6562H177.344C178.969 20.6562 180.109 20.5365 180.766 20.2969C181.422 20.0573 182.021 19.6354 182.562 19.0312C183.104 18.4167 183.646 17.4531 184.188 16.1406ZM203.75 16.1406L204.266 16.25L202.453 22H186.047V21.4219H186.844C187.74 21.4219 188.38 21.1302 188.766 20.5469C188.984 20.2135 189.094 19.4427 189.094 18.2344V4.5625C189.094 3.23958 188.948 2.41146 188.656 2.07812C188.25 1.61979 187.646 1.39062 186.844 1.39062H186.047V0.8125H195.641V1.39062C194.516 1.38021 193.724 1.48438 193.266 1.70312C192.818 1.92188 192.51 2.19792 192.344 2.53125C192.177 2.86458 192.094 3.66146 192.094 4.92188V18.2344C192.094 19.099 192.177 19.6927 192.344 20.0156C192.469 20.2344 192.661 20.3958 192.922 20.5C193.182 20.6042 193.995 20.6562 195.359 20.6562H196.906C198.531 20.6562 199.672 20.5365 200.328 20.2969C200.984 20.0573 201.583 19.6354 202.125 19.0312C202.667 18.4167 203.208 17.4531 203.75 16.1406ZM219.641 0.328125V7.65625H219.062C218.875 6.25 218.536 5.13021 218.047 4.29688C217.568 3.46354 216.88 2.80208 215.984 2.3125C215.089 1.82292 214.161 1.57812 213.203 1.57812C212.12 1.57812 211.224 1.91146 210.516 2.57812C209.807 3.23438 209.453 3.98438 209.453 4.82812C209.453 5.47396 209.677 6.0625 210.125 6.59375C210.771 7.375 212.307 8.41667 214.734 9.71875C216.714 10.7812 218.062 11.599 218.781 12.1719C219.51 12.7344 220.068 13.401 220.453 14.1719C220.849 14.9427 221.047 15.75 221.047 16.5938C221.047 18.1979 220.422 19.5833 219.172 20.75C217.932 21.9062 216.333 22.4844 214.375 22.4844C213.76 22.4844 213.182 22.4375 212.641 22.3438C212.318 22.2917 211.646 22.1042 210.625 21.7812C209.615 21.4479 208.974 21.2812 208.703 21.2812C208.443 21.2812 208.234 21.3594 208.078 21.5156C207.932 21.6719 207.823 21.9948 207.75 22.4844H207.172V15.2188H207.75C208.021 16.7396 208.385 17.8802 208.844 18.6406C209.302 19.3906 210 20.0156 210.938 20.5156C211.885 21.0156 212.922 21.2656 214.047 21.2656C215.349 21.2656 216.375 20.9219 217.125 20.2344C217.885 19.5469 218.266 18.7344 218.266 17.7969C218.266 17.276 218.12 16.75 217.828 16.2188C217.547 15.6875 217.104 15.1927 216.5 14.7344C216.094 14.4219 214.984 13.7604 213.172 12.75C211.359 11.7292 210.068 10.9167 209.297 10.3125C208.536 9.70833 207.958 9.04167 207.562 8.3125C207.167 7.58333 206.969 6.78125 206.969 5.90625C206.969 4.38542 207.552 3.07812 208.719 1.98438C209.885 0.880208 211.37 0.328125 213.172 0.328125C214.297 0.328125 215.49 0.604167 216.75 1.15625C217.333 1.41667 217.745 1.54688 217.984 1.54688C218.255 1.54688 218.474 1.46875 218.641 1.3125C218.818 1.14583 218.958 0.817708 219.062 0.328125H219.641Z" fill="white"/>
<path d="M8.42871 26.5186L8.64062 29.6699H8.42871C8.14616 28.7266 7.74284 28.0475 7.21875 27.6328C6.69466 27.2181 6.06576 27.0107 5.33203 27.0107C4.7168 27.0107 4.16081 27.168 3.66406 27.4824C3.16732 27.7923 2.77539 28.2891 2.48828 28.9727C2.20573 29.6562 2.06445 30.5062 2.06445 31.5225C2.06445 32.361 2.19889 33.0879 2.46777 33.7031C2.73665 34.3184 3.13997 34.79 3.67773 35.1182C4.22005 35.4463 4.83757 35.6104 5.53027 35.6104C6.13184 35.6104 6.66276 35.4827 7.12305 35.2275C7.58333 34.9678 8.08919 34.4551 8.64062 33.6895L8.85254 33.8262C8.3877 34.651 7.84538 35.2549 7.22559 35.6377C6.60579 36.0205 5.86979 36.2119 5.01758 36.2119C3.48177 36.2119 2.29232 35.6423 1.44922 34.5029C0.820312 33.6553 0.505859 32.6572 0.505859 31.5088C0.505859 30.5837 0.713216 29.7337 1.12793 28.959C1.54264 28.1842 2.1123 27.585 2.83691 27.1611C3.56608 26.7327 4.36133 26.5186 5.22266 26.5186C5.89258 26.5186 6.55339 26.6826 7.20508 27.0107C7.39648 27.111 7.5332 27.1611 7.61523 27.1611C7.73828 27.1611 7.84538 27.1178 7.93652 27.0312C8.05501 26.9082 8.13932 26.7373 8.18945 26.5186H8.42871ZM12.8379 29.5537C13.7858 29.5537 14.5469 29.9137 15.1211 30.6338C15.6087 31.249 15.8525 31.9554 15.8525 32.7529C15.8525 33.3135 15.7181 33.8809 15.4492 34.4551C15.1803 35.0293 14.8089 35.4622 14.335 35.7539C13.8656 36.0456 13.3415 36.1914 12.7627 36.1914C11.8193 36.1914 11.0697 35.8154 10.5137 35.0635C10.0443 34.43 9.80957 33.7191 9.80957 32.9307C9.80957 32.3564 9.95085 31.7868 10.2334 31.2217C10.5205 30.652 10.8965 30.2327 11.3613 29.9639C11.8262 29.6904 12.3184 29.5537 12.8379 29.5537ZM12.626 29.998C12.3844 29.998 12.1406 30.071 11.8945 30.2168C11.653 30.3581 11.457 30.6087 11.3066 30.9688C11.1562 31.3288 11.0811 31.7913 11.0811 32.3564C11.0811 33.2679 11.2611 34.054 11.6211 34.7148C11.9857 35.3757 12.4642 35.7061 13.0566 35.7061C13.4987 35.7061 13.8633 35.5238 14.1504 35.1592C14.4375 34.7946 14.5811 34.168 14.5811 33.2793C14.5811 32.1673 14.3418 31.2923 13.8633 30.6543C13.5397 30.2168 13.1273 29.998 12.626 29.998ZM18.6006 30.8799C19.3343 29.9958 20.0339 29.5537 20.6992 29.5537C21.041 29.5537 21.335 29.6403 21.5811 29.8135C21.8271 29.9821 22.0231 30.2624 22.1689 30.6543C22.2692 30.9277 22.3193 31.347 22.3193 31.9121V34.585C22.3193 34.9814 22.3512 35.2503 22.415 35.3916C22.4652 35.5055 22.5449 35.5944 22.6543 35.6582C22.7682 35.722 22.9756 35.7539 23.2764 35.7539V36H20.1797V35.7539H20.3096C20.6012 35.7539 20.804 35.7106 20.918 35.624C21.0365 35.5329 21.1185 35.4007 21.1641 35.2275C21.1823 35.1592 21.1914 34.945 21.1914 34.585V32.0215C21.1914 31.4518 21.1162 31.0394 20.9658 30.7842C20.82 30.5244 20.5716 30.3945 20.2207 30.3945C19.6784 30.3945 19.1383 30.6908 18.6006 31.2832V34.585C18.6006 35.0088 18.6257 35.2708 18.6758 35.3711C18.7396 35.5033 18.8262 35.6012 18.9355 35.665C19.0495 35.7243 19.2773 35.7539 19.6191 35.7539V36H16.5225V35.7539H16.6592C16.9782 35.7539 17.1924 35.6742 17.3018 35.5146C17.4157 35.3506 17.4727 35.0407 17.4727 34.585V32.2607C17.4727 31.5088 17.4544 31.0508 17.418 30.8867C17.3861 30.7227 17.3337 30.611 17.2607 30.5518C17.1924 30.4925 17.099 30.4629 16.9805 30.4629C16.8529 30.4629 16.7002 30.4971 16.5225 30.5654L16.4199 30.3193L18.3066 29.5537H18.6006V30.8799ZM27.8223 29.5537V31.6865H27.5967C27.4235 31.0166 27.2002 30.5609 26.9268 30.3193C26.6579 30.0778 26.3138 29.957 25.8945 29.957C25.5755 29.957 25.318 30.0413 25.1221 30.21C24.9261 30.3786 24.8281 30.5654 24.8281 30.7705C24.8281 31.0257 24.901 31.2445 25.0469 31.4268C25.1882 31.6136 25.4753 31.8118 25.9082 32.0215L26.9062 32.5068C27.8314 32.958 28.2939 33.5527 28.2939 34.291C28.2939 34.8607 28.0775 35.321 27.6445 35.6719C27.2161 36.0182 26.7354 36.1914 26.2021 36.1914C25.8193 36.1914 25.3818 36.123 24.8896 35.9863C24.7393 35.9408 24.6162 35.918 24.5205 35.918C24.4157 35.918 24.3337 35.9772 24.2744 36.0957H24.0488V33.8604H24.2744C24.402 34.4984 24.6458 34.9792 25.0059 35.3027C25.3659 35.6263 25.7692 35.7881 26.2158 35.7881C26.5303 35.7881 26.7855 35.6969 26.9814 35.5146C27.182 35.3278 27.2822 35.1045 27.2822 34.8447C27.2822 34.5303 27.1706 34.266 26.9473 34.0518C26.7285 33.8376 26.2887 33.5664 25.6279 33.2383C24.9671 32.9102 24.5342 32.6139 24.3291 32.3496C24.124 32.0898 24.0215 31.7617 24.0215 31.3652C24.0215 30.8503 24.1969 30.4196 24.5479 30.0732C24.9033 29.7269 25.3613 29.5537 25.9219 29.5537C26.168 29.5537 26.4665 29.6061 26.8174 29.7109C27.0498 29.7793 27.2048 29.8135 27.2822 29.8135C27.3551 29.8135 27.4121 29.7975 27.4531 29.7656C27.4941 29.7337 27.542 29.6631 27.5967 29.5537H27.8223ZM31.0488 27.6807V29.7383H32.5117V30.2168H31.0488V34.2773C31.0488 34.6829 31.1058 34.9564 31.2197 35.0977C31.3382 35.2389 31.4886 35.3096 31.6709 35.3096C31.8213 35.3096 31.9671 35.264 32.1084 35.1729C32.2497 35.0771 32.359 34.9382 32.4365 34.7559H32.7031C32.5436 35.2025 32.318 35.5397 32.0264 35.7676C31.7347 35.9909 31.4339 36.1025 31.124 36.1025C30.9144 36.1025 30.7093 36.0456 30.5088 35.9316C30.3083 35.8132 30.1602 35.6468 30.0645 35.4326C29.9688 35.2139 29.9209 34.8789 29.9209 34.4277V30.2168H28.9297V29.9912C29.1803 29.891 29.4355 29.7223 29.6953 29.4854C29.9596 29.2438 30.1943 28.959 30.3994 28.6309C30.5042 28.4577 30.6501 28.141 30.8369 27.6807H31.0488ZM34.959 29.5537V30.9619C35.4831 30.0231 36.0208 29.5537 36.5723 29.5537C36.8229 29.5537 37.0303 29.6312 37.1943 29.7861C37.3584 29.9365 37.4404 30.112 37.4404 30.3125C37.4404 30.4902 37.3812 30.6406 37.2627 30.7637C37.1442 30.8867 37.0029 30.9482 36.8389 30.9482C36.6794 30.9482 36.4993 30.8708 36.2988 30.7158C36.1029 30.5563 35.957 30.4766 35.8613 30.4766C35.7793 30.4766 35.6904 30.5221 35.5947 30.6133C35.3896 30.8001 35.1777 31.1077 34.959 31.5361V34.5371C34.959 34.8835 35.0023 35.1455 35.0889 35.3232C35.1481 35.4463 35.2529 35.5488 35.4033 35.6309C35.5537 35.7129 35.7702 35.7539 36.0527 35.7539V36H32.8467V35.7539C33.1657 35.7539 33.4027 35.7038 33.5576 35.6035C33.6715 35.5306 33.7513 35.4144 33.7969 35.2549C33.8197 35.1774 33.8311 34.9564 33.8311 34.5918V32.165C33.8311 31.4359 33.8151 31.0029 33.7832 30.8662C33.7559 30.7249 33.7012 30.6224 33.6191 30.5586C33.5417 30.4948 33.4437 30.4629 33.3252 30.4629C33.1839 30.4629 33.0244 30.4971 32.8467 30.5654L32.7783 30.3193L34.6719 29.5537H34.959ZM43.2783 29.7383V33.5322C43.2783 34.2568 43.2943 34.7012 43.3262 34.8652C43.3626 35.0247 43.4173 35.1364 43.4902 35.2002C43.5677 35.264 43.6566 35.2959 43.7568 35.2959C43.8981 35.2959 44.0576 35.2572 44.2354 35.1797L44.3311 35.4189L42.458 36.1914H42.1504V34.8652C41.6126 35.4486 41.2025 35.8154 40.9199 35.9658C40.6374 36.1162 40.3389 36.1914 40.0244 36.1914C39.6735 36.1914 39.3682 36.0911 39.1084 35.8906C38.8532 35.6855 38.6755 35.4235 38.5752 35.1045C38.4749 34.7855 38.4248 34.3343 38.4248 33.751V30.9551C38.4248 30.6589 38.3929 30.4538 38.3291 30.3398C38.2653 30.2259 38.1696 30.1393 38.042 30.0801C37.9189 30.0163 37.6934 29.9867 37.3652 29.9912V29.7383H39.5596V33.9287C39.5596 34.512 39.6598 34.8949 39.8604 35.0771C40.0654 35.2594 40.3115 35.3506 40.5986 35.3506C40.7946 35.3506 41.0156 35.2891 41.2617 35.166C41.5124 35.043 41.8086 34.8083 42.1504 34.4619V30.9141C42.1504 30.5586 42.0843 30.3193 41.9521 30.1963C41.8245 30.0687 41.5557 30.0003 41.1455 29.9912V29.7383H43.2783ZM44.4336 29.7383H47.3525V29.9912H47.209C47.0039 29.9912 46.849 30.0368 46.7441 30.1279C46.6439 30.2145 46.5938 30.3239 46.5938 30.4561C46.5938 30.6338 46.6689 30.8799 46.8193 31.1943L48.3438 34.3525L49.7451 30.8936C49.8226 30.7067 49.8613 30.5221 49.8613 30.3398C49.8613 30.2578 49.8454 30.1963 49.8135 30.1553C49.777 30.1051 49.7201 30.0664 49.6426 30.0391C49.5651 30.0072 49.4284 29.9912 49.2324 29.9912V29.7383H51.2695V29.9912C51.1009 30.0094 50.971 30.0459 50.8799 30.1006C50.7887 30.1553 50.6885 30.2578 50.5791 30.4082C50.5381 30.472 50.4606 30.6475 50.3467 30.9346L47.7969 37.1826C47.5508 37.7887 47.2272 38.2467 46.8262 38.5566C46.4297 38.8665 46.0469 39.0215 45.6777 39.0215C45.4089 39.0215 45.1878 38.944 45.0146 38.7891C44.8415 38.6341 44.7549 38.4564 44.7549 38.2559C44.7549 38.0645 44.8164 37.9095 44.9395 37.791C45.0671 37.6771 45.2402 37.6201 45.459 37.6201C45.6094 37.6201 45.8145 37.6702 46.0742 37.7705C46.2565 37.8389 46.3704 37.873 46.416 37.873C46.5527 37.873 46.7008 37.8024 46.8604 37.6611C47.0244 37.5199 47.1885 37.2464 47.3525 36.8408L47.7969 35.7539L45.5479 31.0303C45.4795 30.889 45.3701 30.7135 45.2197 30.5039C45.1058 30.3444 45.0124 30.2373 44.9395 30.1826C44.8346 30.1097 44.666 30.0459 44.4336 29.9912V29.7383ZM52.8418 32.0967C52.8372 33.0264 53.0628 33.7555 53.5186 34.2842C53.9743 34.8128 54.5098 35.0771 55.125 35.0771C55.5352 35.0771 55.8906 34.9655 56.1914 34.7422C56.4967 34.5143 56.752 34.127 56.957 33.5801L57.1689 33.7168C57.0732 34.3411 56.7952 34.9108 56.335 35.4258C55.8747 35.9362 55.2982 36.1914 54.6055 36.1914C53.8535 36.1914 53.2087 35.8997 52.6709 35.3164C52.1377 34.7285 51.8711 33.9401 51.8711 32.9512C51.8711 31.8802 52.1445 31.0462 52.6914 30.4492C53.2428 29.8477 53.9333 29.5469 54.7627 29.5469C55.4645 29.5469 56.041 29.7793 56.4922 30.2441C56.9434 30.7044 57.1689 31.3219 57.1689 32.0967H52.8418ZM52.8418 31.7002H55.7402C55.7174 31.2992 55.6696 31.0166 55.5967 30.8525C55.4827 30.5973 55.3118 30.3968 55.084 30.251C54.8607 30.1051 54.626 30.0322 54.3799 30.0322C54.0016 30.0322 53.6621 30.1803 53.3613 30.4766C53.0651 30.7682 52.8919 31.1761 52.8418 31.7002ZM63.3281 27.6807V29.7383H64.791V30.2168H63.3281V34.2773C63.3281 34.6829 63.3851 34.9564 63.499 35.0977C63.6175 35.2389 63.7679 35.3096 63.9502 35.3096C64.1006 35.3096 64.2464 35.264 64.3877 35.1729C64.529 35.0771 64.6383 34.9382 64.7158 34.7559H64.9824C64.8229 35.2025 64.5973 35.5397 64.3057 35.7676C64.014 35.9909 63.7132 36.1025 63.4033 36.1025C63.1937 36.1025 62.9886 36.0456 62.7881 35.9316C62.5876 35.8132 62.4395 35.6468 62.3438 35.4326C62.248 35.2139 62.2002 34.8789 62.2002 34.4277V30.2168H61.209V29.9912C61.4596 29.891 61.7148 29.7223 61.9746 29.4854C62.2389 29.2438 62.4736 28.959 62.6787 28.6309C62.7835 28.4577 62.9294 28.141 63.1162 27.6807H63.3281ZM70.8955 29.7383V33.5322C70.8955 34.2568 70.9115 34.7012 70.9434 34.8652C70.9798 35.0247 71.0345 35.1364 71.1074 35.2002C71.1849 35.264 71.2738 35.2959 71.374 35.2959C71.5153 35.2959 71.6748 35.2572 71.8525 35.1797L71.9482 35.4189L70.0752 36.1914H69.7676V34.8652C69.2298 35.4486 68.8197 35.8154 68.5371 35.9658C68.2546 36.1162 67.9561 36.1914 67.6416 36.1914C67.2907 36.1914 66.9854 36.0911 66.7256 35.8906C66.4704 35.6855 66.2926 35.4235 66.1924 35.1045C66.0921 34.7855 66.042 34.3343 66.042 33.751V30.9551C66.042 30.6589 66.0101 30.4538 65.9463 30.3398C65.8825 30.2259 65.7868 30.1393 65.6592 30.0801C65.5361 30.0163 65.3105 29.9867 64.9824 29.9912V29.7383H67.1768V33.9287C67.1768 34.512 67.277 34.8949 67.4775 35.0771C67.6826 35.2594 67.9287 35.3506 68.2158 35.3506C68.4118 35.3506 68.6328 35.2891 68.8789 35.166C69.1296 35.043 69.4258 34.8083 69.7676 34.4619V30.9141C69.7676 30.5586 69.7015 30.3193 69.5693 30.1963C69.4417 30.0687 69.1729 30.0003 68.7627 29.9912V29.7383H70.8955ZM78.3535 30.2305V34.3457C78.3535 34.929 78.4173 35.2982 78.5449 35.4531C78.7135 35.6536 78.9391 35.7539 79.2217 35.7539H79.7891V36H76.0498V35.7539H76.3301C76.5124 35.7539 76.6787 35.7083 76.8291 35.6172C76.9795 35.526 77.082 35.403 77.1367 35.248C77.196 35.0931 77.2256 34.7923 77.2256 34.3457V30.2305H76.0088V29.7383H77.2256V29.3281C77.2256 28.7038 77.3258 28.1751 77.5264 27.7422C77.7269 27.3092 78.0322 26.9606 78.4424 26.6963C78.8571 26.4274 79.3219 26.293 79.8369 26.293C80.3154 26.293 80.7552 26.4479 81.1562 26.7578C81.4206 26.9629 81.5527 27.193 81.5527 27.4482C81.5527 27.585 81.4935 27.7148 81.375 27.8379C81.2565 27.9564 81.1289 28.0156 80.9922 28.0156C80.8874 28.0156 80.7757 27.9792 80.6572 27.9062C80.5433 27.8288 80.402 27.667 80.2334 27.4209C80.0648 27.1702 79.9098 27.0016 79.7686 26.915C79.6273 26.8285 79.4701 26.7852 79.2969 26.7852C79.0872 26.7852 78.9095 26.8421 78.7637 26.9561C78.6178 27.0654 78.513 27.2386 78.4492 27.4756C78.3854 27.708 78.3535 28.3118 78.3535 29.2871V29.7383H79.9668V30.2305H78.3535ZM86.0576 29.7383V33.5322C86.0576 34.2568 86.0736 34.7012 86.1055 34.8652C86.1419 35.0247 86.1966 35.1364 86.2695 35.2002C86.347 35.264 86.4359 35.2959 86.5361 35.2959C86.6774 35.2959 86.8369 35.2572 87.0146 35.1797L87.1104 35.4189L85.2373 36.1914H84.9297V34.8652C84.3919 35.4486 83.9818 35.8154 83.6992 35.9658C83.4167 36.1162 83.1182 36.1914 82.8037 36.1914C82.4528 36.1914 82.1475 36.0911 81.8877 35.8906C81.6325 35.6855 81.4548 35.4235 81.3545 35.1045C81.2542 34.7855 81.2041 34.3343 81.2041 33.751V30.9551C81.2041 30.6589 81.1722 30.4538 81.1084 30.3398C81.0446 30.2259 80.9489 30.1393 80.8213 30.0801C80.6982 30.0163 80.4727 29.9867 80.1445 29.9912V29.7383H82.3389V33.9287C82.3389 34.512 82.4391 34.8949 82.6396 35.0771C82.8447 35.2594 83.0908 35.3506 83.3779 35.3506C83.5739 35.3506 83.7949 35.2891 84.041 35.166C84.2917 35.043 84.5879 34.8083 84.9297 34.4619V30.9141C84.9297 30.5586 84.8636 30.3193 84.7314 30.1963C84.6038 30.0687 84.335 30.0003 83.9248 29.9912V29.7383H86.0576ZM89.3867 27.6807V29.7383H90.8496V30.2168H89.3867V34.2773C89.3867 34.6829 89.4437 34.9564 89.5576 35.0977C89.6761 35.2389 89.8265 35.3096 90.0088 35.3096C90.1592 35.3096 90.305 35.264 90.4463 35.1729C90.5876 35.0771 90.6969 34.9382 90.7744 34.7559H91.041C90.8815 35.2025 90.6559 35.5397 90.3643 35.7676C90.0726 35.9909 89.7718 36.1025 89.4619 36.1025C89.2523 36.1025 89.0472 36.0456 88.8467 35.9316C88.6462 35.8132 88.498 35.6468 88.4023 35.4326C88.3066 35.2139 88.2588 34.8789 88.2588 34.4277V30.2168H87.2676V29.9912C87.5182 29.891 87.7734 29.7223 88.0332 29.4854C88.2975 29.2438 88.5322 28.959 88.7373 28.6309C88.8421 28.4577 88.988 28.141 89.1748 27.6807H89.3867ZM96.9541 29.7383V33.5322C96.9541 34.2568 96.9701 34.7012 97.002 34.8652C97.0384 35.0247 97.0931 35.1364 97.166 35.2002C97.2435 35.264 97.3324 35.2959 97.4326 35.2959C97.5739 35.2959 97.7334 35.2572 97.9111 35.1797L98.0068 35.4189L96.1338 36.1914H95.8262V34.8652C95.2884 35.4486 94.8783 35.8154 94.5957 35.9658C94.3132 36.1162 94.0146 36.1914 93.7002 36.1914C93.3493 36.1914 93.0439 36.0911 92.7842 35.8906C92.529 35.6855 92.3512 35.4235 92.251 35.1045C92.1507 34.7855 92.1006 34.3343 92.1006 33.751V30.9551C92.1006 30.6589 92.0687 30.4538 92.0049 30.3398C91.9411 30.2259 91.8454 30.1393 91.7178 30.0801C91.5947 30.0163 91.3691 29.9867 91.041 29.9912V29.7383H93.2354V33.9287C93.2354 34.512 93.3356 34.8949 93.5361 35.0771C93.7412 35.2594 93.9873 35.3506 94.2744 35.3506C94.4704 35.3506 94.6914 35.2891 94.9375 35.166C95.1882 35.043 95.4844 34.8083 95.8262 34.4619V30.9141C95.8262 30.5586 95.7601 30.3193 95.6279 30.1963C95.5003 30.0687 95.2314 30.0003 94.8213 29.9912V29.7383H96.9541ZM100.297 29.5537V30.9619C100.821 30.0231 101.359 29.5537 101.91 29.5537C102.161 29.5537 102.368 29.6312 102.532 29.7861C102.696 29.9365 102.778 30.112 102.778 30.3125C102.778 30.4902 102.719 30.6406 102.601 30.7637C102.482 30.8867 102.341 30.9482 102.177 30.9482C102.017 30.9482 101.837 30.8708 101.637 30.7158C101.441 30.5563 101.295 30.4766 101.199 30.4766C101.117 30.4766 101.028 30.5221 100.933 30.6133C100.728 30.8001 100.516 31.1077 100.297 31.5361V34.5371C100.297 34.8835 100.34 35.1455 100.427 35.3232C100.486 35.4463 100.591 35.5488 100.741 35.6309C100.892 35.7129 101.108 35.7539 101.391 35.7539V36H98.1846V35.7539C98.5036 35.7539 98.7406 35.7038 98.8955 35.6035C99.0094 35.5306 99.0892 35.4144 99.1348 35.2549C99.1576 35.1774 99.1689 34.9564 99.1689 34.5918V32.165C99.1689 31.4359 99.153 31.0029 99.1211 30.8662C99.0938 30.7249 99.0391 30.6224 98.957 30.5586C98.8796 30.4948 98.7816 30.4629 98.6631 30.4629C98.5218 30.4629 98.3623 30.4971 98.1846 30.5654L98.1162 30.3193L100.01 29.5537H100.297ZM106.189 29.5537C107.137 29.5537 107.898 29.9137 108.473 30.6338C108.96 31.249 109.204 31.9554 109.204 32.7529C109.204 33.3135 109.07 33.8809 108.801 34.4551C108.532 35.0293 108.16 35.4622 107.687 35.7539C107.217 36.0456 106.693 36.1914 106.114 36.1914C105.171 36.1914 104.421 35.8154 103.865 35.0635C103.396 34.43 103.161 33.7191 103.161 32.9307C103.161 32.3564 103.302 31.7868 103.585 31.2217C103.872 30.652 104.248 30.2327 104.713 29.9639C105.178 29.6904 105.67 29.5537 106.189 29.5537ZM105.978 29.998C105.736 29.998 105.492 30.071 105.246 30.2168C105.005 30.3581 104.809 30.6087 104.658 30.9688C104.508 31.3288 104.433 31.7913 104.433 32.3564C104.433 33.2679 104.613 34.054 104.973 34.7148C105.337 35.3757 105.816 35.7061 106.408 35.7061C106.85 35.7061 107.215 35.5238 107.502 35.1592C107.789 34.7946 107.933 34.168 107.933 33.2793C107.933 32.1673 107.693 31.2923 107.215 30.6543C106.891 30.2168 106.479 29.998 105.978 29.998ZM110.441 38.3311V38.0303C110.911 37.8753 111.273 37.6338 111.528 37.3057C111.788 36.9821 111.918 36.638 111.918 36.2734C111.918 36.1868 111.897 36.1139 111.856 36.0547C111.825 36.0137 111.793 35.9932 111.761 35.9932C111.711 35.9932 111.601 36.0387 111.433 36.1299C111.351 36.1709 111.264 36.1914 111.173 36.1914C110.95 36.1914 110.772 36.1253 110.64 35.9932C110.507 35.861 110.441 35.6787 110.441 35.4463C110.441 35.223 110.526 35.0316 110.694 34.8721C110.868 34.7126 111.077 34.6328 111.323 34.6328C111.624 34.6328 111.891 34.765 112.123 35.0293C112.36 35.2891 112.479 35.6354 112.479 36.0684C112.479 36.5378 112.314 36.973 111.986 37.374C111.663 37.7796 111.148 38.0986 110.441 38.3311ZM118.72 26.2793C118.911 26.2793 119.073 26.3477 119.205 26.4844C119.342 26.6165 119.41 26.7783 119.41 26.9697C119.41 27.1611 119.342 27.3252 119.205 27.4619C119.073 27.5986 118.911 27.667 118.72 27.667C118.528 27.667 118.364 27.5986 118.228 27.4619C118.091 27.3252 118.022 27.1611 118.022 26.9697C118.022 26.7783 118.089 26.6165 118.221 26.4844C118.357 26.3477 118.524 26.2793 118.72 26.2793ZM119.287 29.5537V34.585C119.287 34.9769 119.314 35.2389 119.369 35.3711C119.428 35.4987 119.513 35.5944 119.622 35.6582C119.736 35.722 119.941 35.7539 120.237 35.7539V36H117.195V35.7539C117.501 35.7539 117.706 35.7243 117.811 35.665C117.915 35.6058 117.997 35.5078 118.057 35.3711C118.12 35.2344 118.152 34.9723 118.152 34.585V32.1719C118.152 31.4928 118.132 31.0531 118.091 30.8525C118.059 30.7067 118.009 30.6064 117.94 30.5518C117.872 30.4925 117.779 30.4629 117.66 30.4629C117.533 30.4629 117.378 30.4971 117.195 30.5654L117.1 30.3193L118.986 29.5537H119.287ZM122.849 30.8799C123.582 29.9958 124.282 29.5537 124.947 29.5537C125.289 29.5537 125.583 29.6403 125.829 29.8135C126.075 29.9821 126.271 30.2624 126.417 30.6543C126.517 30.9277 126.567 31.347 126.567 31.9121V34.585C126.567 34.9814 126.599 35.2503 126.663 35.3916C126.713 35.5055 126.793 35.5944 126.902 35.6582C127.016 35.722 127.224 35.7539 127.524 35.7539V36H124.428V35.7539H124.558C124.849 35.7539 125.052 35.7106 125.166 35.624C125.285 35.5329 125.367 35.4007 125.412 35.2275C125.43 35.1592 125.439 34.945 125.439 34.585V32.0215C125.439 31.4518 125.364 31.0394 125.214 30.7842C125.068 30.5244 124.82 30.3945 124.469 30.3945C123.926 30.3945 123.386 30.6908 122.849 31.2832V34.585C122.849 35.0088 122.874 35.2708 122.924 35.3711C122.988 35.5033 123.074 35.6012 123.184 35.665C123.298 35.7243 123.525 35.7539 123.867 35.7539V36H120.771V35.7539H120.907C121.226 35.7539 121.44 35.6742 121.55 35.5146C121.664 35.3506 121.721 35.0407 121.721 34.585V32.2607C121.721 31.5088 121.702 31.0508 121.666 30.8867C121.634 30.7227 121.582 30.611 121.509 30.5518C121.44 30.4925 121.347 30.4629 121.229 30.4629C121.101 30.4629 120.948 30.4971 120.771 30.5654L120.668 30.3193L122.555 29.5537H122.849V30.8799ZM127.702 29.7383H130.648V29.9912H130.457C130.279 29.9912 130.143 30.0345 130.047 30.1211C129.956 30.2077 129.91 30.3239 129.91 30.4697C129.91 30.6292 129.958 30.8184 130.054 31.0371L131.51 34.4961L132.973 30.9072C133.077 30.652 133.13 30.4583 133.13 30.3262C133.13 30.2624 133.112 30.21 133.075 30.1689C133.025 30.1006 132.961 30.055 132.884 30.0322C132.806 30.0049 132.649 29.9912 132.412 29.9912V29.7383H134.456V29.9912C134.219 30.0094 134.055 30.0573 133.964 30.1348C133.804 30.2715 133.661 30.4993 133.533 30.8184L131.312 36.1914H131.031L128.796 30.9072C128.696 30.6611 128.6 30.4857 128.509 30.3809C128.418 30.2715 128.301 30.1803 128.16 30.1074C128.083 30.0664 127.93 30.0277 127.702 29.9912V29.7383ZM136.616 26.2793C136.808 26.2793 136.969 26.3477 137.102 26.4844C137.238 26.6165 137.307 26.7783 137.307 26.9697C137.307 27.1611 137.238 27.3252 137.102 27.4619C136.969 27.5986 136.808 27.667 136.616 27.667C136.425 27.667 136.261 27.5986 136.124 27.4619C135.987 27.3252 135.919 27.1611 135.919 26.9697C135.919 26.7783 135.985 26.6165 136.117 26.4844C136.254 26.3477 136.42 26.2793 136.616 26.2793ZM137.184 29.5537V34.585C137.184 34.9769 137.211 35.2389 137.266 35.3711C137.325 35.4987 137.409 35.5944 137.519 35.6582C137.632 35.722 137.838 35.7539 138.134 35.7539V36H135.092V35.7539C135.397 35.7539 135.602 35.7243 135.707 35.665C135.812 35.6058 135.894 35.5078 135.953 35.3711C136.017 35.2344 136.049 34.9723 136.049 34.585V32.1719C136.049 31.4928 136.028 31.0531 135.987 30.8525C135.955 30.7067 135.905 30.6064 135.837 30.5518C135.769 30.4925 135.675 30.4629 135.557 30.4629C135.429 30.4629 135.274 30.4971 135.092 30.5654L134.996 30.3193L136.883 29.5537H137.184ZM139.973 32.0967C139.968 33.0264 140.194 33.7555 140.649 34.2842C141.105 34.8128 141.641 35.0771 142.256 35.0771C142.666 35.0771 143.021 34.9655 143.322 34.7422C143.628 34.5143 143.883 34.127 144.088 33.5801L144.3 33.7168C144.204 34.3411 143.926 34.9108 143.466 35.4258C143.006 35.9362 142.429 36.1914 141.736 36.1914C140.984 36.1914 140.34 35.8997 139.802 35.3164C139.269 34.7285 139.002 33.9401 139.002 32.9512C139.002 31.8802 139.275 31.0462 139.822 30.4492C140.374 29.8477 141.064 29.5469 141.894 29.5469C142.595 29.5469 143.172 29.7793 143.623 30.2441C144.074 30.7044 144.3 31.3219 144.3 32.0967H139.973ZM139.973 31.7002H142.871C142.848 31.2992 142.8 31.0166 142.728 30.8525C142.614 30.5973 142.443 30.3968 142.215 30.251C141.992 30.1051 141.757 30.0322 141.511 30.0322C141.132 30.0322 140.793 30.1803 140.492 30.4766C140.196 30.7682 140.023 31.1761 139.973 31.7002ZM146.973 29.5537V30.9619C147.497 30.0231 148.035 29.5537 148.586 29.5537C148.837 29.5537 149.044 29.6312 149.208 29.7861C149.372 29.9365 149.454 30.112 149.454 30.3125C149.454 30.4902 149.395 30.6406 149.276 30.7637C149.158 30.8867 149.017 30.9482 148.853 30.9482C148.693 30.9482 148.513 30.8708 148.312 30.7158C148.117 30.5563 147.971 30.4766 147.875 30.4766C147.793 30.4766 147.704 30.5221 147.608 30.6133C147.403 30.8001 147.191 31.1077 146.973 31.5361V34.5371C146.973 34.8835 147.016 35.1455 147.103 35.3232C147.162 35.4463 147.267 35.5488 147.417 35.6309C147.567 35.7129 147.784 35.7539 148.066 35.7539V36H144.86V35.7539C145.179 35.7539 145.416 35.7038 145.571 35.6035C145.685 35.5306 145.765 35.4144 145.811 35.2549C145.833 35.1774 145.845 34.9564 145.845 34.5918V32.165C145.845 31.4359 145.829 31.0029 145.797 30.8662C145.77 30.7249 145.715 30.6224 145.633 30.5586C145.555 30.4948 145.457 30.4629 145.339 30.4629C145.198 30.4629 145.038 30.4971 144.86 30.5654L144.792 30.3193L146.686 29.5537H146.973ZM151.621 27.6807V29.7383H153.084V30.2168H151.621V34.2773C151.621 34.6829 151.678 34.9564 151.792 35.0977C151.91 35.2389 152.061 35.3096 152.243 35.3096C152.394 35.3096 152.539 35.264 152.681 35.1729C152.822 35.0771 152.931 34.9382 153.009 34.7559H153.275C153.116 35.2025 152.89 35.5397 152.599 35.7676C152.307 35.9909 152.006 36.1025 151.696 36.1025C151.487 36.1025 151.282 36.0456 151.081 35.9316C150.881 35.8132 150.732 35.6468 150.637 35.4326C150.541 35.2139 150.493 34.8789 150.493 34.4277V30.2168H149.502V29.9912C149.753 29.891 150.008 29.7223 150.268 29.4854C150.532 29.2438 150.767 28.959 150.972 28.6309C151.076 28.4577 151.222 28.141 151.409 27.6807H151.621ZM154.752 32.0967C154.747 33.0264 154.973 33.7555 155.429 34.2842C155.884 34.8128 156.42 35.0771 157.035 35.0771C157.445 35.0771 157.801 34.9655 158.102 34.7422C158.407 34.5143 158.662 34.127 158.867 33.5801L159.079 33.7168C158.983 34.3411 158.705 34.9108 158.245 35.4258C157.785 35.9362 157.208 36.1914 156.516 36.1914C155.764 36.1914 155.119 35.8997 154.581 35.3164C154.048 34.7285 153.781 33.9401 153.781 32.9512C153.781 31.8802 154.055 31.0462 154.602 30.4492C155.153 29.8477 155.843 29.5469 156.673 29.5469C157.375 29.5469 157.951 29.7793 158.402 30.2441C158.854 30.7044 159.079 31.3219 159.079 32.0967H154.752ZM154.752 31.7002H157.65C157.628 31.2992 157.58 31.0166 157.507 30.8525C157.393 30.5973 157.222 30.3968 156.994 30.251C156.771 30.1051 156.536 30.0322 156.29 30.0322C155.912 30.0322 155.572 30.1803 155.271 30.4766C154.975 30.7682 154.802 31.1761 154.752 31.7002ZM164.473 32.0967C164.468 33.0264 164.694 33.7555 165.149 34.2842C165.605 34.8128 166.141 35.0771 166.756 35.0771C167.166 35.0771 167.521 34.9655 167.822 34.7422C168.128 34.5143 168.383 34.127 168.588 33.5801L168.8 33.7168C168.704 34.3411 168.426 34.9108 167.966 35.4258C167.506 35.9362 166.929 36.1914 166.236 36.1914C165.484 36.1914 164.84 35.8997 164.302 35.3164C163.769 34.7285 163.502 33.9401 163.502 32.9512C163.502 31.8802 163.775 31.0462 164.322 30.4492C164.874 29.8477 165.564 29.5469 166.394 29.5469C167.095 29.5469 167.672 29.7793 168.123 30.2441C168.574 30.7044 168.8 31.3219 168.8 32.0967H164.473ZM164.473 31.7002H167.371C167.348 31.2992 167.3 31.0166 167.228 30.8525C167.114 30.5973 166.943 30.3968 166.715 30.251C166.492 30.1051 166.257 30.0322 166.011 30.0322C165.632 30.0322 165.293 30.1803 164.992 30.4766C164.696 30.7682 164.523 31.1761 164.473 31.7002ZM171.466 30.8799C172.2 29.9958 172.899 29.5537 173.564 29.5537C173.906 29.5537 174.2 29.6403 174.446 29.8135C174.692 29.9821 174.888 30.2624 175.034 30.6543C175.134 30.9277 175.185 31.347 175.185 31.9121V34.585C175.185 34.9814 175.216 35.2503 175.28 35.3916C175.33 35.5055 175.41 35.5944 175.52 35.6582C175.633 35.722 175.841 35.7539 176.142 35.7539V36H173.045V35.7539H173.175C173.466 35.7539 173.669 35.7106 173.783 35.624C173.902 35.5329 173.984 35.4007 174.029 35.2275C174.048 35.1592 174.057 34.945 174.057 34.585V32.0215C174.057 31.4518 173.981 31.0394 173.831 30.7842C173.685 30.5244 173.437 30.3945 173.086 30.3945C172.544 30.3945 172.004 30.6908 171.466 31.2832V34.585C171.466 35.0088 171.491 35.2708 171.541 35.3711C171.605 35.5033 171.691 35.6012 171.801 35.665C171.915 35.7243 172.143 35.7539 172.484 35.7539V36H169.388V35.7539H169.524C169.843 35.7539 170.058 35.6742 170.167 35.5146C170.281 35.3506 170.338 35.0407 170.338 34.585V32.2607C170.338 31.5088 170.32 31.0508 170.283 30.8867C170.251 30.7227 170.199 30.611 170.126 30.5518C170.058 30.4925 169.964 30.4629 169.846 30.4629C169.718 30.4629 169.565 30.4971 169.388 30.5654L169.285 30.3193L171.172 29.5537H171.466V30.8799ZM181.959 27.6807V29.7383H183.422V30.2168H181.959V34.2773C181.959 34.6829 182.016 34.9564 182.13 35.0977C182.248 35.2389 182.399 35.3096 182.581 35.3096C182.731 35.3096 182.877 35.264 183.019 35.1729C183.16 35.0771 183.269 34.9382 183.347 34.7559H183.613C183.454 35.2025 183.228 35.5397 182.937 35.7676C182.645 35.9909 182.344 36.1025 182.034 36.1025C181.825 36.1025 181.619 36.0456 181.419 35.9316C181.218 35.8132 181.07 35.6468 180.975 35.4326C180.879 35.2139 180.831 34.8789 180.831 34.4277V30.2168H179.84V29.9912C180.09 29.891 180.346 29.7223 180.605 29.4854C180.87 29.2438 181.104 28.959 181.31 28.6309C181.414 28.4577 181.56 28.141 181.747 27.6807H181.959ZM189.526 29.7383V33.5322C189.526 34.2568 189.542 34.7012 189.574 34.8652C189.611 35.0247 189.665 35.1364 189.738 35.2002C189.816 35.264 189.905 35.2959 190.005 35.2959C190.146 35.2959 190.306 35.2572 190.483 35.1797L190.579 35.4189L188.706 36.1914H188.398V34.8652C187.861 35.4486 187.451 35.8154 187.168 35.9658C186.885 36.1162 186.587 36.1914 186.272 36.1914C185.922 36.1914 185.616 36.0911 185.356 35.8906C185.101 35.6855 184.924 35.4235 184.823 35.1045C184.723 34.7855 184.673 34.3343 184.673 33.751V30.9551C184.673 30.6589 184.641 30.4538 184.577 30.3398C184.513 30.2259 184.418 30.1393 184.29 30.0801C184.167 30.0163 183.941 29.9867 183.613 29.9912V29.7383H185.808V33.9287C185.808 34.512 185.908 34.8949 186.108 35.0771C186.313 35.2594 186.56 35.3506 186.847 35.3506C187.043 35.3506 187.264 35.2891 187.51 35.166C187.76 35.043 188.057 34.8083 188.398 34.4619V30.9141C188.398 30.5586 188.332 30.3193 188.2 30.1963C188.073 30.0687 187.804 30.0003 187.394 29.9912V29.7383H189.526ZM196.984 30.2305V34.3457C196.984 34.929 197.048 35.2982 197.176 35.4531C197.344 35.6536 197.57 35.7539 197.853 35.7539H198.42V36H194.681V35.7539H194.961C195.143 35.7539 195.31 35.7083 195.46 35.6172C195.61 35.526 195.713 35.403 195.768 35.248C195.827 35.0931 195.856 34.7923 195.856 34.3457V30.2305H194.64V29.7383H195.856V29.3281C195.856 28.7038 195.957 28.1751 196.157 27.7422C196.358 27.3092 196.663 26.9606 197.073 26.6963C197.488 26.4274 197.953 26.293 198.468 26.293C198.946 26.293 199.386 26.4479 199.787 26.7578C200.051 26.9629 200.184 27.193 200.184 27.4482C200.184 27.585 200.124 27.7148 200.006 27.8379C199.887 27.9564 199.76 28.0156 199.623 28.0156C199.518 28.0156 199.407 27.9792 199.288 27.9062C199.174 27.8288 199.033 27.667 198.864 27.4209C198.696 27.1702 198.541 27.0016 198.399 26.915C198.258 26.8285 198.101 26.7852 197.928 26.7852C197.718 26.7852 197.54 26.8421 197.395 26.9561C197.249 27.0654 197.144 27.2386 197.08 27.4756C197.016 27.708 196.984 28.3118 196.984 29.2871V29.7383H198.598V30.2305H196.984ZM202.747 35.0977C202.104 35.5944 201.701 35.8815 201.537 35.959C201.291 36.0729 201.029 36.1299 200.751 36.1299C200.318 36.1299 199.96 35.9818 199.678 35.6855C199.4 35.3893 199.261 34.9997 199.261 34.5166C199.261 34.2113 199.329 33.9469 199.466 33.7236C199.653 33.4137 199.976 33.1221 200.437 32.8486C200.901 32.5752 201.672 32.2425 202.747 31.8506V31.6045C202.747 30.9801 202.647 30.5518 202.446 30.3193C202.25 30.0869 201.963 29.9707 201.585 29.9707C201.298 29.9707 201.07 30.0482 200.901 30.2031C200.728 30.3581 200.642 30.5358 200.642 30.7363L200.655 31.1328C200.655 31.3424 200.601 31.5042 200.491 31.6182C200.386 31.7321 200.247 31.7891 200.074 31.7891C199.906 31.7891 199.767 31.7298 199.657 31.6113C199.552 31.4928 199.5 31.3311 199.5 31.126C199.5 30.734 199.701 30.374 200.102 30.0459C200.503 29.7178 201.065 29.5537 201.79 29.5537C202.346 29.5537 202.802 29.6471 203.157 29.834C203.426 29.9753 203.624 30.1963 203.752 30.4971C203.834 30.693 203.875 31.0941 203.875 31.7002V33.8262C203.875 34.4232 203.886 34.79 203.909 34.9268C203.932 35.0589 203.968 35.1478 204.019 35.1934C204.073 35.2389 204.135 35.2617 204.203 35.2617C204.276 35.2617 204.34 35.2458 204.395 35.2139C204.49 35.1546 204.675 34.9883 204.948 34.7148V35.0977C204.438 35.7812 203.95 36.123 203.485 36.123C203.262 36.123 203.084 36.0456 202.952 35.8906C202.82 35.7357 202.752 35.4714 202.747 35.0977ZM202.747 34.6533V32.2676C202.059 32.541 201.615 32.7347 201.414 32.8486C201.054 33.0492 200.797 33.2588 200.642 33.4775C200.487 33.6963 200.409 33.9355 200.409 34.1953C200.409 34.5234 200.507 34.7969 200.703 35.0156C200.899 35.2298 201.125 35.3369 201.38 35.3369C201.726 35.3369 202.182 35.109 202.747 34.6533ZM207.279 30.8867C207.735 30.431 208.004 30.1689 208.086 30.1006C208.291 29.9274 208.512 29.793 208.749 29.6973C208.986 29.6016 209.221 29.5537 209.453 29.5537C209.845 29.5537 210.182 29.6676 210.465 29.8955C210.747 30.1234 210.937 30.4538 211.032 30.8867C211.502 30.3398 211.898 29.9821 212.222 29.8135C212.545 29.6403 212.878 29.5537 213.22 29.5537C213.552 29.5537 213.846 29.6403 214.102 29.8135C214.361 29.9821 214.566 30.2601 214.717 30.6475C214.817 30.9118 214.867 31.3265 214.867 31.8916V34.585C214.867 34.9769 214.897 35.2458 214.956 35.3916C215.002 35.4919 215.086 35.5785 215.209 35.6514C215.332 35.7197 215.533 35.7539 215.811 35.7539V36H212.721V35.7539H212.851C213.119 35.7539 213.329 35.7015 213.479 35.5967C213.584 35.5238 213.66 35.4076 213.705 35.248C213.723 35.1706 213.732 34.9495 213.732 34.585V31.8916C213.732 31.3812 213.671 31.0212 213.548 30.8115C213.37 30.5199 213.085 30.374 212.693 30.374C212.452 30.374 212.208 30.4355 211.962 30.5586C211.72 30.6771 211.426 30.9004 211.08 31.2285L211.066 31.3037L211.08 31.5977V34.585C211.08 35.0133 211.103 35.2799 211.148 35.3848C211.199 35.4896 211.29 35.5785 211.422 35.6514C211.554 35.7197 211.78 35.7539 212.099 35.7539V36H208.934V35.7539C209.28 35.7539 209.517 35.7129 209.645 35.6309C209.777 35.5488 209.868 35.4258 209.918 35.2617C209.941 35.1842 209.952 34.9587 209.952 34.585V31.8916C209.952 31.3812 209.877 31.0143 209.727 30.791C209.526 30.4993 209.246 30.3535 208.886 30.3535C208.64 30.3535 208.396 30.4196 208.154 30.5518C207.776 30.7523 207.484 30.9779 207.279 31.2285V34.585C207.279 34.9951 207.307 35.2617 207.361 35.3848C207.421 35.5078 207.505 35.6012 207.614 35.665C207.728 35.7243 207.956 35.7539 208.298 35.7539V36H205.201V35.7539C205.488 35.7539 205.689 35.7243 205.803 35.665C205.917 35.6012 206.003 35.5033 206.062 35.3711C206.122 35.2344 206.151 34.9723 206.151 34.585V32.1924C206.151 31.5042 206.131 31.0599 206.09 30.8594C206.058 30.709 206.008 30.6064 205.939 30.5518C205.871 30.4925 205.778 30.4629 205.659 30.4629C205.532 30.4629 205.379 30.4971 205.201 30.5654L205.099 30.3193L206.985 29.5537H207.279V30.8867ZM217.909 26.2793C218.101 26.2793 218.262 26.3477 218.395 26.4844C218.531 26.6165 218.6 26.7783 218.6 26.9697C218.6 27.1611 218.531 27.3252 218.395 27.4619C218.262 27.5986 218.101 27.667 217.909 27.667C217.718 27.667 217.554 27.5986 217.417 27.4619C217.28 27.3252 217.212 27.1611 217.212 26.9697C217.212 26.7783 217.278 26.6165 217.41 26.4844C217.547 26.3477 217.713 26.2793 217.909 26.2793ZM218.477 29.5537V34.585C218.477 34.9769 218.504 35.2389 218.559 35.3711C218.618 35.4987 218.702 35.5944 218.812 35.6582C218.925 35.722 219.131 35.7539 219.427 35.7539V36H216.385V35.7539C216.69 35.7539 216.895 35.7243 217 35.665C217.105 35.6058 217.187 35.5078 217.246 35.3711C217.31 35.2344 217.342 34.9723 217.342 34.585V32.1719C217.342 31.4928 217.321 31.0531 217.28 30.8525C217.248 30.7067 217.198 30.6064 217.13 30.5518C217.062 30.4925 216.968 30.4629 216.85 30.4629C216.722 30.4629 216.567 30.4971 216.385 30.5654L216.289 30.3193L218.176 29.5537H218.477ZM222.366 26.2793V34.585C222.366 34.9769 222.394 35.2367 222.448 35.3643C222.507 35.4919 222.596 35.5898 222.715 35.6582C222.833 35.722 223.054 35.7539 223.378 35.7539V36H220.309V35.7539C220.596 35.7539 220.792 35.7243 220.896 35.665C221.001 35.6058 221.083 35.5078 221.143 35.3711C221.202 35.2344 221.231 34.9723 221.231 34.585V28.8975C221.231 28.1911 221.215 27.7581 221.184 27.5986C221.152 27.4346 221.099 27.3229 221.026 27.2637C220.958 27.2044 220.869 27.1748 220.76 27.1748C220.641 27.1748 220.491 27.2113 220.309 27.2842L220.192 27.0449L222.059 26.2793H222.366ZM225.702 26.2793C225.894 26.2793 226.055 26.3477 226.188 26.4844C226.324 26.6165 226.393 26.7783 226.393 26.9697C226.393 27.1611 226.324 27.3252 226.188 27.4619C226.055 27.5986 225.894 27.667 225.702 27.667C225.511 27.667 225.347 27.5986 225.21 27.4619C225.073 27.3252 225.005 27.1611 225.005 26.9697C225.005 26.7783 225.071 26.6165 225.203 26.4844C225.34 26.3477 225.506 26.2793 225.702 26.2793ZM226.27 29.5537V34.585C226.27 34.9769 226.297 35.2389 226.352 35.3711C226.411 35.4987 226.495 35.5944 226.604 35.6582C226.718 35.722 226.924 35.7539 227.22 35.7539V36H224.178V35.7539C224.483 35.7539 224.688 35.7243 224.793 35.665C224.898 35.6058 224.98 35.5078 225.039 35.3711C225.103 35.2344 225.135 34.9723 225.135 34.585V32.1719C225.135 31.4928 225.114 31.0531 225.073 30.8525C225.041 30.7067 224.991 30.6064 224.923 30.5518C224.854 30.4925 224.761 30.4629 224.643 30.4629C224.515 30.4629 224.36 30.4971 224.178 30.5654L224.082 30.3193L225.969 29.5537H226.27ZM231.554 35.0977C230.911 35.5944 230.508 35.8815 230.344 35.959C230.098 36.0729 229.836 36.1299 229.558 36.1299C229.125 36.1299 228.767 35.9818 228.484 35.6855C228.206 35.3893 228.067 34.9997 228.067 34.5166C228.067 34.2113 228.136 33.9469 228.272 33.7236C228.459 33.4137 228.783 33.1221 229.243 32.8486C229.708 32.5752 230.478 32.2425 231.554 31.8506V31.6045C231.554 30.9801 231.453 30.5518 231.253 30.3193C231.057 30.0869 230.77 29.9707 230.392 29.9707C230.104 29.9707 229.877 30.0482 229.708 30.2031C229.535 30.3581 229.448 30.5358 229.448 30.7363L229.462 31.1328C229.462 31.3424 229.407 31.5042 229.298 31.6182C229.193 31.7321 229.054 31.7891 228.881 31.7891C228.712 31.7891 228.573 31.7298 228.464 31.6113C228.359 31.4928 228.307 31.3311 228.307 31.126C228.307 30.734 228.507 30.374 228.908 30.0459C229.309 29.7178 229.872 29.5537 230.597 29.5537C231.153 29.5537 231.608 29.6471 231.964 29.834C232.233 29.9753 232.431 30.1963 232.559 30.4971C232.641 30.693 232.682 31.0941 232.682 31.7002V33.8262C232.682 34.4232 232.693 34.79 232.716 34.9268C232.739 35.0589 232.775 35.1478 232.825 35.1934C232.88 35.2389 232.941 35.2617 233.01 35.2617C233.083 35.2617 233.146 35.2458 233.201 35.2139C233.297 35.1546 233.481 34.9883 233.755 34.7148V35.0977C233.244 35.7812 232.757 36.123 232.292 36.123C232.069 36.123 231.891 36.0456 231.759 35.8906C231.627 35.7357 231.558 35.4714 231.554 35.0977ZM231.554 34.6533V32.2676C230.866 32.541 230.421 32.7347 230.221 32.8486C229.861 33.0492 229.603 33.2588 229.448 33.4775C229.293 33.6963 229.216 33.9355 229.216 34.1953C229.216 34.5234 229.314 34.7969 229.51 35.0156C229.706 35.2298 229.931 35.3369 230.187 35.3369C230.533 35.3369 230.989 35.109 231.554 34.6533Z" fill="white"/>
</svg>
